# xmcd
# 
# Track frame offsets:
#     150
#     13757
#     31630
#     47555
#     61302
#     72907
#     93990
#     113625
#     127590
#     145935
#     162112
#     180712
#     204050
#     221545
#     243045
#     263982
#     276005
#     297057
# 
# Disc length: 4202
# 
# Revision: 2
# Processed by: cddbd v1.5.1PL0 Copyright (c) Steve Scherf et al.
# Submitted via: BonkEnc v1.0beta3
# 
DISCID=ec106812
DTITLE=Arne Domnerus - Best of Dompan
DYEAR=2004
DGENRE=Jazz
TTITLE0=En gång i Stockholm
TTITLE1=It's In The Bag
TTITLE2=Nocturne
TTITLE3=Herkules Jonssons låt
TTITLE4=We've Got A Groovy Thing Going
TTITLE5=Vårat gäng
TTITLE6=Ta av dig skorna
TTITLE7=Som fågeln vid ljusan dag
TTITLE8=Meditation For Saxophone
TTITLE9=I'm Checkin' Out Go'em By (Barney Going Easy)
TTITLE10=Mack The Knife
TTITLE11=Lover Man
TTITLE12=Visa från Utanmyra
TTITLE13=Manha de Carnival
TTITLE14=What Kind Of Fool Am I
TTITLE15=You've Got It
TTITLE16=Take The A-Train
TTITLE17=Gammal fäbodpsalm
EXTD=YEAR: 2004
EXTT0=
EXTT1=
EXTT2=
EXTT3=
EXTT4=
EXTT5=
EXTT6=
EXTT7=
EXTT8=
EXTT9=
EXTT10=
EXTT11=
EXTT12=
EXTT13=
EXTT14=
EXTT15=
EXTT16=
EXTT17=
PLAYORDER=
